<svg width="72" height="12" viewBox="0 0 72 12" fill="none" xmlns="http://www.w3.org/2000/svg">
<path d="M44.7731 9.92003C43.9682 10.7134 43.0307 11.11 41.9607 11.11C41.2979 11.11 40.6729 10.9794 40.0858 10.718C39.5082 10.4567 39.0016 10.0974 38.566 9.64003C38.1399 9.18269 37.799 8.64603 37.5434 8.03003C37.2972 7.40469 37.1741 6.73269 37.1741 6.01402C37.1741 5.33269 37.2972 4.69336 37.5434 4.09602C37.799 3.48936 38.1447 2.96202 38.5802 2.51402C39.0253 2.05669 39.5461 1.69736 40.1427 1.43602C40.7392 1.16536 41.3879 1.03002 42.0886 1.03002C43.0355 1.03002 43.8451 1.22602 44.5174 1.61802C45.1992 2.01002 45.7105 2.53736 46.0514 3.20002L44.5884 4.26402C44.3328 3.76936 43.9729 3.39136 43.5089 3.13002C43.0544 2.86869 42.5573 2.73802 42.0176 2.73802C41.5914 2.73802 41.1985 2.82669 40.8386 3.00402C40.4883 3.18136 40.1853 3.42402 39.9296 3.73202C39.6834 4.04002 39.4893 4.39469 39.3472 4.79602C39.2147 5.19736 39.1484 5.62202 39.1484 6.07002C39.1484 6.53669 39.2241 6.97536 39.3757 7.38602C39.5272 7.78736 39.7355 8.13736 40.0006 8.43603C40.2658 8.73469 40.5782 8.97269 40.9381 9.15003C41.3074 9.31803 41.7051 9.40203 42.1312 9.40203C43.1065 9.40203 43.9871 8.94936 44.7731 8.04403V7.34403H42.7419V5.93002H46.3923V11.04H44.7731V9.92003Z" fill="#464646"/>
<path d="M51.3297 11.18C50.7331 11.18 50.1934 11.082 49.7104 10.886C49.2275 10.6807 48.8156 10.4054 48.4747 10.06C48.1338 9.71469 47.8687 9.31336 47.6793 8.85603C47.4994 8.39869 47.4094 7.91803 47.4094 7.41402C47.4094 6.89136 47.4994 6.40136 47.6793 5.94402C47.8592 5.47736 48.1196 5.07136 48.4605 4.72602C48.8014 4.37136 49.2133 4.09136 49.6962 3.88602C50.1886 3.68069 50.7378 3.57802 51.3439 3.57802C51.9499 3.57802 52.4896 3.68069 52.9631 3.88602C53.446 4.09136 53.8532 4.36669 54.1846 4.71202C54.5255 5.05736 54.7812 5.45869 54.9516 5.91602C55.1315 6.37336 55.2215 6.84936 55.2215 7.34403C55.2215 7.46536 55.2168 7.58202 55.2073 7.69403C55.2073 7.80603 55.1978 7.89936 55.1789 7.97403H49.4264C49.4548 8.26336 49.5258 8.52002 49.6394 8.74403C49.753 8.96803 49.8998 9.15936 50.0797 9.31803C50.2596 9.47669 50.4632 9.59803 50.6905 9.68203C50.9178 9.76603 51.1545 9.80803 51.4007 9.80803C51.7794 9.80803 52.1345 9.71936 52.466 9.54203C52.8069 9.35536 53.0388 9.11269 53.1619 8.81402L54.7954 9.26203C54.5208 9.82203 54.0805 10.284 53.4744 10.648C52.8779 11.0027 52.1629 11.18 51.3297 11.18ZM53.2614 6.75602C53.214 6.20536 53.0057 5.76669 52.6364 5.44002C52.2766 5.10402 51.8363 4.93602 51.3155 4.93602C51.0598 4.93602 50.8183 4.98269 50.5911 5.07602C50.3733 5.16002 50.1792 5.28136 50.0087 5.44002C49.8383 5.59869 49.6962 5.79002 49.5826 6.01402C49.4784 6.23802 49.4169 6.48536 49.3979 6.75602H53.2614Z" fill="#464646"/>
<path d="M59.8325 11.18C59.2359 11.18 58.6962 11.082 58.2133 10.886C57.7303 10.6807 57.3184 10.4054 56.9775 10.06C56.6366 9.71469 56.3715 9.31336 56.1821 8.85603C56.0022 8.39869 55.9123 7.91803 55.9123 7.41402C55.9123 6.89136 56.0022 6.40136 56.1821 5.94402C56.362 5.47736 56.6224 5.07136 56.9633 4.72602C57.3042 4.37136 57.7161 4.09136 58.1991 3.88602C58.6915 3.68069 59.2407 3.57802 59.8467 3.57802C60.4527 3.57802 60.9925 3.68069 61.4659 3.88602C61.9488 4.09136 62.356 4.36669 62.6874 4.71202C63.0283 5.05736 63.284 5.45869 63.4544 5.91602C63.6344 6.37336 63.7243 6.84936 63.7243 7.34403C63.7243 7.46536 63.7196 7.58202 63.7101 7.69403C63.7101 7.80603 63.7006 7.89936 63.6817 7.97403H57.9292C57.9576 8.26336 58.0286 8.52002 58.1422 8.74403C58.2559 8.96803 58.4026 9.15936 58.5826 9.31803C58.7625 9.47669 58.9661 9.59803 59.1933 9.68203C59.4206 9.76603 59.6573 9.80803 59.9035 9.80803C60.2823 9.80803 60.6374 9.71936 60.9688 9.54203C61.3097 9.35536 61.5417 9.11269 61.6648 8.81402L63.2982 9.26203C63.0236 9.82203 62.5833 10.284 61.9773 10.648C61.3807 11.0027 60.6658 11.18 59.8325 11.18ZM61.7642 6.75602C61.7169 6.20536 61.5085 5.76669 61.1392 5.44002C60.7794 5.10402 60.3391 4.93602 59.8183 4.93602C59.5626 4.93602 59.3212 4.98269 59.0939 5.07602C58.8761 5.16002 58.682 5.28136 58.5115 5.44002C58.3411 5.59869 58.1991 5.79002 58.0854 6.01402C57.9813 6.23802 57.9197 6.48536 57.9008 6.75602H61.7642Z" fill="#464646"/>
<path d="M69.9688 11.04L67.8098 7.86203L66.7871 8.85603V11.04H64.8838V0.820023H66.7871V7.02203L69.7699 3.71802H71.801L69.0313 6.82603L71.9999 11.04H69.9688Z" fill="#464646"/>
<path d="M4.25669 1.10002H5.98954L9.82455 11.04H7.80762L6.87017 8.56203H3.34765L2.4244 11.04H0.407471L4.25669 1.10002ZM6.51508 7.20402L5.12311 3.29802L3.67433 7.20402H6.51508Z" fill="#2A7AE4"/>
<path d="M10.7318 0.820023H12.6351V8.68803C12.6351 8.95869 12.7014 9.16869 12.834 9.31803C12.9665 9.46736 13.1559 9.54203 13.4021 9.54203C13.5158 9.54203 13.6389 9.52336 13.7714 9.48603C13.9135 9.44869 14.046 9.40203 14.1691 9.34603L14.4248 10.774C14.1691 10.8954 13.8708 10.9887 13.53 11.054C13.1891 11.1194 12.8813 11.152 12.6067 11.152C12.0102 11.152 11.5462 10.998 11.2147 10.69C10.8928 10.3727 10.7318 9.92469 10.7318 9.34603V0.820023Z" fill="#2A7AE4"/>
<path d="M17.5266 11.18C16.7596 11.18 16.1773 10.9374 15.7796 10.452C15.3819 9.96669 15.183 9.24803 15.183 8.29603V3.70402H17.0863V7.89003C17.0863 9.01936 17.4982 9.58403 18.3221 9.58403C18.6914 9.58403 19.0464 9.47669 19.3873 9.26203C19.7377 9.03803 20.0218 8.70203 20.2396 8.25403V3.70402H22.1429V8.88402C22.1429 9.08002 22.176 9.22003 22.2423 9.30403C22.318 9.38803 22.4364 9.43469 22.5974 9.44403V11.04C22.408 11.0774 22.247 11.1007 22.1145 11.11C21.9914 11.1194 21.8777 11.124 21.7736 11.124C21.4327 11.124 21.1533 11.0494 20.9355 10.9C20.7272 10.7414 20.6041 10.5267 20.5662 10.256L20.5236 9.66803C20.1922 10.172 19.7661 10.55 19.2453 10.802C18.7245 11.054 18.1516 11.18 17.5266 11.18Z" fill="#2A7AE4"/>
<path d="M28.4659 5.32802C27.8882 5.33736 27.3722 5.44936 26.9177 5.66402C26.4631 5.86936 26.1364 6.18202 25.9376 6.60202V11.04H24.0343V3.70402H25.7814V5.27202C25.9139 5.02002 26.0702 4.79602 26.2501 4.60002C26.43 4.39469 26.6241 4.21736 26.8324 4.06802C27.0408 3.91869 27.2491 3.80669 27.4574 3.73202C27.6752 3.64802 27.8835 3.60602 28.0824 3.60602C28.1865 3.60602 28.2623 3.60602 28.3096 3.60602C28.3664 3.60602 28.4185 3.61069 28.4659 3.62002V5.32802Z" fill="#2A7AE4"/>
<path d="M31.4612 11.18C31.1014 11.18 30.7652 11.124 30.4527 11.012C30.1402 10.8907 29.8704 10.7274 29.6431 10.522C29.4158 10.3074 29.2359 10.06 29.1034 9.78003C28.9803 9.50003 28.9187 9.19203 28.9187 8.85603C28.9187 8.51069 28.9945 8.19336 29.146 7.90403C29.3069 7.60536 29.5247 7.35336 29.7993 7.14803C30.0834 6.94269 30.4196 6.78402 30.8078 6.67202C31.196 6.55069 31.6222 6.49002 32.0861 6.49002C32.4176 6.49002 32.7395 6.51802 33.052 6.57402C33.374 6.63002 33.658 6.70936 33.9042 6.81202V6.39202C33.9042 5.90669 33.7622 5.53336 33.4781 5.27202C33.2035 5.01069 32.7916 4.88002 32.2424 4.88002C31.8447 4.88002 31.4564 4.95002 31.0777 5.09002C30.6989 5.23002 30.3107 5.43536 29.913 5.70602L29.3306 4.51602C30.287 3.89069 31.3191 3.57802 32.427 3.57802C33.4971 3.57802 34.3256 3.83936 34.9127 4.36202C35.5093 4.87536 35.8075 5.62202 35.8075 6.60202V8.88402C35.8075 9.08002 35.8407 9.22003 35.907 9.30403C35.9827 9.38803 36.1011 9.43469 36.2621 9.44403V11.04C35.9401 11.1054 35.6608 11.138 35.424 11.138C35.0642 11.138 34.7849 11.0587 34.586 10.9C34.3966 10.7414 34.2783 10.5314 34.2309 10.27L34.1883 9.86403C33.8569 10.2934 33.4544 10.62 32.981 10.844C32.5075 11.068 32.0009 11.18 31.4612 11.18ZM32.0009 9.80803C32.3229 9.80803 32.6259 9.75203 32.91 9.64003C33.2035 9.52803 33.4308 9.37869 33.5917 9.19203C33.8001 9.03336 33.9042 8.85603 33.9042 8.66003V7.82002C33.677 7.73602 33.4308 7.67069 33.1656 7.62402C32.9005 7.56803 32.6448 7.54003 32.3986 7.54003C31.9062 7.54003 31.5038 7.65203 31.1913 7.87603C30.8788 8.09069 30.7226 8.36603 30.7226 8.70203C30.7226 9.01936 30.8457 9.28536 31.0919 9.50003C31.3381 9.70536 31.6411 9.80803 32.0009 9.80803Z" fill="#2A7AE4"/>
</svg>
